<svg width="24" height="24" fill="none" xmlns="http://www.w3.org/2000/svg"><g clip-path="url(#prefix__clip0)"><path fill-rule="evenodd" clip-rule="evenodd" d="M2 5c0-1.103.897-2 2-2h16c1.103 0 2 .897 2 2v9.408l-2-1.123V5H4v14h8v2H4c-1.103 0-2-.897-2-2V5zm12 9.145c0-.653.514-1.126 1.086-1.145.19-.006.387.038.574.143l7.76 4.355c.774.434.774 1.569 0 2.004l-7.76 4.355c-.747.42-1.66-.131-1.66-1.002v-8.71zM6.002 9V7H8v2H6.002zM16 9V7h2v2h-2zM6 13v-2h2v2H6zm0 4v-2h2v2H6z" fill="#fff"/></g><defs><clipPath id="prefix__clip0"><path fill="#fff" d="M0 0h24v24H0z"/></clipPath></defs></svg>